<svg width="25" height="25" viewBox="0 0 25 25" fill="none" xmlns="http://www.w3.org/2000/svg">
<g clip-path="url(#clip0_111_2)">
<path d="M12.3596 19.9719C11.6596 19.9719 11.0596 19.6719 10.6596 19.1719L0.759555 8.07193C0.159555 7.27193 0.259555 6.07193 1.05955 5.47193C1.85955 4.87193 2.95955 4.87193 3.55955 5.67193L12.1596 15.4719C12.2596 15.5719 12.3596 15.5719 12.5596 15.4719L21.1596 5.67193C21.8596 4.87193 22.9596 4.77193 23.7596 5.47193C24.5596 6.17193 24.6596 7.27193 23.9596 8.07193C23.9596 8.07193 23.9596 8.07193 23.8596 8.17193L14.0596 19.2719C13.6596 19.6719 12.9596 19.9719 12.3596 19.9719Z" fill="black"/>
</g>
<defs>
<clipPath id="clip0_111_2">
<rect width="24" height="24" fill="white" transform="translate(0.359558 0.471924)"/>
</clipPath>
</defs>
</svg>
